<svg width="198" height="27" viewBox="0 0 198 27" fill="none" xmlns="http://www.w3.org/2000/svg">
<g clip-path="url(#clip0_561_894)">
<path d="M47.623 26.9408H44.3248L43.7509 23.1677H39.7294L39.1643 26.9452H36.1563L39.4919 6.12305H44.2874L47.623 26.9408ZM40.1471 20.3368H43.3046L41.7259 9.79508L40.1471 20.3368Z" fill="white"/>
<path d="M58.3135 9.0923H54.503V21.7643C54.5299 22.6436 54.3988 23.5206 54.116 24.3536C53.9016 24.9596 53.5441 25.5051 53.0738 25.9437C52.6418 26.328 52.1272 26.6082 51.5698 26.7629C50.9927 26.9223 50.3964 27.0021 49.7976 27.0001H48.9928C48.7338 26.9985 48.4751 26.9787 48.2189 26.9408V23.9671C48.4066 23.987 48.5952 23.9965 48.784 23.9957H49.3491C49.8185 24.0084 50.2801 23.8732 50.6683 23.6091C51.0348 23.3529 51.2188 22.8178 51.2202 22.0037V6.11865H61.5831V26.9408H58.3069L58.3135 9.0923Z" fill="white"/>
<path d="M63.9732 26.9408V6.11865H67.2494V13.9437H68.7885C70.4376 13.9437 71.6638 14.3829 72.4671 15.2614C73.2704 16.1399 73.6727 17.4188 73.6742 19.0982V21.8061C73.6742 23.4898 73.2718 24.7687 72.4671 25.6428C71.6623 26.5169 70.4361 26.9561 68.7885 26.9605L63.9732 26.9408ZM68.7973 23.9671C69.0139 23.9814 69.2311 23.9518 69.4359 23.8801C69.6407 23.8084 69.8288 23.6961 69.989 23.5498C70.2661 23.2731 70.4068 22.757 70.4068 22.0125V18.8785C70.4068 18.1252 70.2661 17.6113 69.989 17.3412C69.8285 17.1954 69.6403 17.0833 69.4356 17.0117C69.2309 16.94 69.0138 16.9101 68.7973 16.9239H67.2582V23.9759L68.7973 23.9671Z" fill="white"/>
<path d="M74.2767 6.11865H84.4043V9.0923H80.9786V26.9408H77.7024V9.0923H74.2767V6.11865Z" fill="white"/>
<path d="M89.1602 14.8924H93.6567V17.8683H89.1602V23.9671H94.8177V26.9408H85.8928V6.11865H94.8265V9.0923H89.1602V14.8924Z" fill="white"/>
<path d="M101.588 6.11865C103.235 6.11865 104.461 6.55789 105.264 7.43637C106.067 8.31485 106.47 9.59376 106.471 11.2731V13.981C106.471 15.6662 106.069 16.9452 105.264 17.8178C104.459 18.6904 103.234 19.1296 101.588 19.1355H100.049V26.9583H96.7724V6.11865H101.588ZM100.049 9.0923V16.1399H101.588C101.804 16.154 102.02 16.1246 102.225 16.0533C102.429 15.982 102.617 15.8702 102.777 15.7248C103.057 15.4459 103.195 14.932 103.195 14.1765V11.0557C103.195 10.3017 103.056 9.78923 102.777 9.51836C102.618 9.37211 102.43 9.25972 102.225 9.188C102.021 9.11628 101.804 9.08671 101.588 9.10108L100.049 9.0923Z" fill="white"/>
<path d="M111.236 26.9408H107.96V6.11865H111.236V15.0418H114.959V6.11865H118.294V26.9408H114.959V18.0176H111.236V26.9408Z" fill="white"/>
<path d="M131.249 26.9408H127.951L127.377 23.1677H123.358L122.802 26.9408H119.783L123.118 6.11865H127.914L131.249 26.9408ZM123.773 20.3368H126.931L125.352 9.79508L123.773 20.3368Z" fill="white"/>
<path d="M131.845 6.11865H141.96V9.0923H138.547V26.9408H135.271V9.0923H131.845V6.11865Z" fill="white"/>
<path d="M146.826 26.9408H143.47V6.11865H146.39V18.582L149.754 6.11865H153.864V26.9408H150.917V11.8595L146.826 26.9408Z" fill="white"/>
<path d="M161.179 6.11865C162.887 6.11865 164.123 6.5147 164.889 7.30679C165.654 8.09889 166.036 9.29874 166.034 10.9064V11.6509C166.066 12.5604 165.893 13.4656 165.528 14.2995C165.191 14.9863 164.621 15.5311 163.919 15.8368C164.328 15.9742 164.705 16.1908 165.03 16.4742C165.355 16.7576 165.621 17.1022 165.812 17.4883C166.204 18.3724 166.392 19.3331 166.362 20.2995V21.9949C166.362 23.6055 165.945 24.8295 165.111 25.667C164.277 26.5045 163.036 26.9261 161.388 26.932H156.236V6.11865H161.179ZM159.521 9.0923V14.6025H160.801C161.326 14.634 161.843 14.4635 162.246 14.126C162.593 13.8097 162.767 13.2351 162.767 12.402V11.2402C162.767 10.4862 162.633 9.94076 162.364 9.60401C162.096 9.268 161.676 9.09889 161.1 9.09889L159.521 9.0923ZM159.521 17.5696V23.9671H161.397C161.627 23.9847 161.858 23.9547 162.076 23.8792C162.294 23.8036 162.494 23.684 162.663 23.5279C162.957 23.2351 163.103 22.6999 163.103 21.9225V20.093C163.103 19.1201 162.94 18.4569 162.613 18.0989C162.285 17.7409 161.733 17.563 160.988 17.563L159.521 17.5696Z" fill="white"/>
<path d="M178.871 26.9408H175.572L174.999 23.1677H170.979L170.412 26.9452H167.404L170.735 6.11865H175.531L178.871 26.9408ZM171.395 20.3368H174.552L172.973 9.79508L171.395 20.3368Z" fill="white"/>
<path d="M17.0071 6.03711H5.8813C3.18543 6.03711 1 8.21997 1 10.9127V22.0254C1 24.7181 3.18543 26.9009 5.8813 26.9009H17.0071C19.703 26.9009 21.8884 24.7181 21.8884 22.0254V10.9127C21.8884 8.21997 19.703 6.03711 17.0071 6.03711Z" fill="white"/>
<path d="M22.2732 6.03711H11.1474C8.45152 6.03711 6.26608 8.21997 6.26608 10.9127V22.0254C6.26608 24.7181 8.45152 26.9009 11.1474 26.9009H22.2732C24.9691 26.9009 27.1545 24.7181 27.1545 22.0254V10.9127C27.1545 8.21997 24.9691 6.03711 22.2732 6.03711Z" fill="url(#paint0_linear_561_894)"/>
<path d="M187.886 6H198V8.97364H194.577V26.8155H191.303V8.97364H187.886V6Z" fill="white"/>
</g>
<defs>
<linearGradient id="paint0_linear_561_894" x1="6.26608" y1="16.469" x2="27.1545" y2="16.469" gradientUnits="userSpaceOnUse">
<stop stop-color="white"/>
<stop offset="1" stop-color="white"/>
</linearGradient>
<clipPath id="clip0_561_894">
<rect width="197" height="21" fill="white" transform="translate(1 6)"/>
</clipPath>
</defs>
</svg>
