<svg width="29" height="23" viewBox="0 0 29 23" fill="none" xmlns="http://www.w3.org/2000/svg">
<path d="M17.4697 0.0408936H5.32731C2.38512 0.0408936 0 2.43164 0 5.38078V17.5519C0 20.501 2.38512 22.8918 5.32731 22.8918H17.4697C20.4119 22.8918 22.797 20.501 22.797 17.5519V5.38078C22.797 2.43164 20.4119 0.0408936 17.4697 0.0408936Z" fill="#3FA9F5"/>
<path d="M23.217 0.0408936H11.0746C8.13237 0.0408936 5.74725 2.43164 5.74725 5.38078V17.5519C5.74725 20.501 8.13237 22.8918 11.0746 22.8918H23.217C26.1592 22.8918 28.5443 20.501 28.5443 17.5519V5.38078C28.5443 2.43164 26.1592 0.0408936 23.217 0.0408936Z" fill="url(#paint0_linear_452_646)"/>
<defs>
<linearGradient id="paint0_linear_452_646" x1="5.74725" y1="11.4663" x2="28.5443" y2="11.4663" gradientUnits="userSpaceOnUse">
<stop stop-color="#FF4148"/>
<stop offset="1" stop-color="#FF931E"/>
</linearGradient>
</defs>
</svg>
